:SAMPLES-PER-SECOND 30
:FULLY-SPECIFIED
:DEGREES
46
root  53.7447 39.7719 21.1625 -39.0094 -85.4534 36.3551
RightUpLeg  -20.1039 0.874205 -6.63211
RightLeg  56.1519 -3.70906 -6.3719
RightFoot  2.81332 -0.729444 6.01413
RightToes  1.74622e-010 0 -3.6325e-017
Spine  10.0749 0.116855 0.392588
Spine1  7.84868 0.962415 -3.74947
HEad  -5.38754 1.41717 -4.52402
LeftShoulder1  8.89787 -12.5492 -48.3848
LeftArm  -5.69976 7.95972 -26.0295
LeftForeArm  23.632 -15.7928 -4.98676
LeftHand  -0.244104 0.0205437 5.32207
RightShoulder  6.77555 10.3302 42.6621
RightArm  11.416 -13.3677 31.9039
RightForeArm  7.18961 14.4936 7.76865
RightHand  -0.937907 1.6308 -15.612
LeftUpLeg  -3.95482 7.19076 -5.22765
LeftLeg  14.3953 11.2018 0.133425
LeftFoot  -9.7614 0.00864901 3.66945
LeftToes  -2.63786e-011 -1.12672e-010 -2.07835e-011
47
root  52.4326 39.8365 21.4054 -27.8104 -85.1002 24.7003
RightUpLeg  -22.4812 -0.867091 -5.56315
RightLeg  48.3851 -3.78235 -4.93279
RightFoot  1.43952 -0.625528 5.6742
RightToes  1.74622e-010 0 -3.6325e-017
Spine  10.5589 -0.564638 -0.107201
Spine1  7.76843 -0.186783 -2.21054
HEad  -4.73653 2.04004 -4.16651
LeftShoulder1  8.83387 -12.5005 -48.1808
LeftArm  -3.69638 4.89123 -26.7136
LeftForeArm  21.8865 -19.2747 -4.25256
LeftHand  -0.244104 0.0205437 5.32207
RightShoulder  6.62484 10.1332 42.2934
RightArm  9.41802 -15.4963 31.3438
RightForeArm  6.81627 13.957 7.85828
RightHand  -0.933617 1.46129 -15.9129
LeftUpLeg  -0.674155 6.06607 -4.29907
LeftLeg  13.2865 11.5001 -0.673044
LeftFoot  -11.2469 0.063258 3.797
LeftToes  -2.63786e-011 -1.12672e-010 -2.07835e-011
48
root  51.0524 39.7219 21.6134 -22.728 -84.1974 19.3064
RightUpLeg  -23.4461 -3.4277 -4.88305
RightLeg  37.7744 -2.7943 -2.58789
RightFoot  0.314597 -0.640052 6.28789
RightToes  1.74622e-010 0 -3.6325e-017
Spine  10.6831 -1.21001 -1.36202
Spine1  7.79096 -1.33548 -0.776499
HEad  -4.39083 2.56828 -3.91709
LeftShoulder1  8.81481 -12.5076 -48.0542
LeftArm  -2.8545 1.89686 -26.9457
LeftForeArm  21.132 -22.5149 -3.88611
LeftHand  -0.244104 0.0205437 5.32207
RightShoulder  6.5645 10.0193 42.2588
RightArm  6.21195 -17.1343 30.5383
RightForeArm  7.0196 12.7882 8.00587
RightHand  -0.909609 1.06869 -16.4175
LeftUpLeg  1.98877 5.60633 -3.92939
LeftLeg  13.3973 10.9374 -1.12256
LeftFoot  -13.7121 0.14582 3.12147
LeftToes  -2.63786e-011 -1.12672e-010 -2.07835e-011
49
root  49.561 39.517 21.7998 -22.7467 -83.1824 19.1912
RightUpLeg  -23.299 -7.17115 -4.06328
RightLeg  25.2848 -1.31697 -1.06521
RightFoot  -0.0918311 -0.736289 7.45421
RightToes  1.74622e-010 0 -3.6325e-017
Spine  10.2386 -1.69642 -3.12548
Spine1  8.04583 -2.33671 0.79905
HEad  -4.27052 2.89074 -3.73664
LeftShoulder1  8.77593 -12.5074 -47.84
LeftArm  -3.78422 -0.920843 -27.0728
LeftForeArm  22.4578 -25.2031 -4.18551
LeftHand  -0.244104 0.0205437 5.32207
RightShoulder  6.5657 10.0214 42.2599
RightArm  2.22538 -18.4422 29.7988
RightForeArm  8.41245 10.9658 8.03167
RightHand  -0.869539 0.712846 -16.585
LeftUpLeg  4.66053 5.39526 -3.89116
LeftLeg  13.529 10.2354 -1.61076
LeftFoot  -16.0322 0.203043 2.57364
LeftToes  -2.63786e-011 -1.12672e-010 -2.07835e-011
50
root  48.0062 39.3347 21.9934 -23.3204 -82.3294 19.6832
RightUpLeg  -22.1989 -10.1858 -3.49426
RightLeg  11.6993 -1.38455 0.576734
RightFoot  -0.0511152 -0.814397 8.21629
RightToes  1.74622e-010 0 -3.6325e-017
Spine  9.63075 -2.0154 -4.46096
Spine1  8.42377 -3.12163 2.45331
HEad  -4.11071 2.93516 -3.50207
LeftShoulder1  8.71925 -12.4839 -47.5973
LeftArm  -5.01907 -3.46949 -27.3031
LeftForeArm  24.0802 -27.2135 -4.5601
LeftHand  -0.244104 0.0205437 5.32207
RightShoulder  6.53092 10.0007 42.0893
RightArm  -1.54891 -19.6212 29.3801
RightForeArm  10.3759 8.84827 7.74307
RightHand  -0.87201 0.857439 -16.2665
LeftUpLeg  7.95069 5.28036 -3.79968
LeftLeg  12.4704 9.55407 -2.32451
LeftFoot  -17.4504 0.254537 2.79168
LeftToes  -2.63786e-011 -1.12672e-010 -2.07835e-011
51
root  46.3803 39.0508 22.1934 -24.1754 -81.6233 20.2564
RightUpLeg  -20.3649 -6.82788 -5.82133
RightLeg  -0.303317 -6.77098 4.01946
RightFoot  -0.382162 -0.851573 8.85701
RightToes  1.74622e-010 0 -3.6325e-017
Spine  9.29891 -2.22758 -5.05932
Spine1  8.58163 -3.55978 3.36168
HEad  -3.96454 2.81911 -3.14944
LeftShoulder1  8.70391 -12.5292 -47.3761
LeftArm  -5.78106 -5.73028 -27.6062
LeftForeArm  25.0013 -28.5014 -4.79899
LeftHand  -0.244104 0.0205437 5.32207
RightShoulder  6.45823 9.8986 41.9272
RightArm  -4.21535 -20.7258 29.1835
RightForeArm  11.6766 7.05934 7.16607
RightHand  -0.900602 1.24751 -15.8333
LeftUpLeg  11.4672 5.51183 -3.56156
LeftLeg  11.7257 8.43191 -2.86367
LeftFoot  -19.2424 0.310527 2.84523
LeftToes  -2.63786e-011 -1.12672e-010 -2.07835e-011
52
root  44.6412 38.6121 22.3845 -24.9041 -81.1247 20.4935
RightUpLeg  -20.0808 -7.12855 -5.94893
RightLeg  -5.16901 -5.94838 5.24608
RightFoot  -1.91342 -0.853549 10.1498
RightToes  1.74622e-010 0 -3.6325e-017
Spine  9.12283 -2.37402 -5.05562
Spine1  8.53995 -3.66768 3.47804
HEad  -4.26203 2.47741 -2.78495
LeftShoulder1  8.71103 -12.6674 -47.0034
LeftArm  -6.08372 -7.48181 -28.0999
LeftForeArm  25.4527 -29.3054 -4.95817
LeftHand  -0.244104 0.0205437 5.32207
RightShoulder  6.41827 9.8296 41.8802
RightArm  -5.81468 -21.5339 29.016
RightForeArm  12.0192 5.73787 6.60049
RightHand  -0.892309 1.26621 -15.6499
LeftUpLeg  14.7744 6.27822 -2.97894
LeftLeg  12.4048 6.7158 -2.94958
LeftFoot  -21.6331 0.308638 1.98941
LeftToes  -2.63786e-011 -1.12672e-010 -2.07835e-011
53
root  42.8562 38.2505 22.5538 -22.1483 -80.896 17.5782
RightUpLeg  -20.6701 -6.71273 -5.36755
RightLeg  -3.57325 -6.75167 5.07258
RightFoot  -2.33705 -0.805228 9.9748
RightToes  1.74622e-010 0 -3.6325e-017
Spine  8.65159 -2.50028 -4.34233
Spine1  8.83998 -3.89688 3.83346
HEad  -5.41315 0.788129 -3.06541
LeftShoulder1  8.68052 -12.7773 -46.5107
LeftArm  -6.15479 -8.22041 -28.7346
LeftForeArm  25.8788 -30.044 -5.10605
LeftHand  -0.244104 0.0205437 5.32207
RightShoulder  6.39951 9.82746 41.7558
RightArm  -6.72905 -21.8627 28.8458
RightForeArm  12.0315 4.72747 6.24483
RightHand  -0.870277 1.05556 -15.7497
LeftUpLeg  17.6508 7.52515 -1.59162
LeftLeg  13.2515 4.49882 -2.63506
LeftFoot  -22.7857 0.199095 0.616599
LeftToes  -2.63786e-011 -1.12672e-010 -2.07835e-011
